<?xml version="1.0" standalone="no"?>
<!DOCTYPE svg PUBLIC "-//W3C//DTD SVG 20010904//EN"
 "http://www.w3.org/TR/2001/REC-SVG-20010904/DTD/svg10.dtd">
<svg version="1.0" xmlns="http://www.w3.org/2000/svg"
 width="1024.000000pt" height="1024.000000pt" viewBox="0 0 1024.000000 1024.000000"
 preserveAspectRatio="xMidYMid meet">

<g transform="translate(0.000000,1024.000000) scale(0.100000,-0.100000)"
fill="#000000" stroke="none">
<path d="M3362 8918 c-18 -18 -14 -143 8 -236 19 -81 53 -160 92 -215 11 -16
19 -29 17 -31 -2 -1 -35 -13 -74 -25 -159 -51 -315 -187 -394 -343 -174 -345
-17 -789 347 -981 95 -50 257 -110 330 -122 23 -4 42 -8 42 -10 0 -1 -12 -29
-26 -60 -21 -46 -28 -79 -32 -153 -5 -93 -6 -96 -51 -162 l-47 -67 -52 102
c-68 131 -124 195 -207 236 -54 27 -74 31 -134 30 l-70 -1 -20 68 c-12 37 -33
107 -47 157 -44 152 -104 255 -149 255 -65 0 -100 -86 -93 -226 2 -41 2 -74 1
-74 -1 0 -24 14 -52 31 -45 28 -57 31 -106 27 -75 -6 -110 -39 -109 -101 1
-56 26 -101 90 -163 l52 -51 -68 -5 c-110 -8 -172 -62 -155 -136 11 -53 43
-71 169 -96 64 -13 119 -25 121 -28 2 -2 0 -22 -6 -44 -16 -57 -5 -136 31
-211 32 -69 29 -66 300 -315 125 -114 250 -249 250 -268 0 -5 -13 -10 -30 -10
-37 0 -131 -35 -164 -61 l-27 -21 -71 67 c-85 81 -156 116 -232 117 -103 1
-196 -68 -196 -145 0 -53 32 -83 120 -113 41 -14 83 -33 93 -42 16 -15 14 -17
-38 -33 -103 -32 -187 -125 -226 -250 -55 -177 14 -364 236 -644 273 -343 420
-443 589 -400 33 9 76 25 94 35 18 11 46 20 62 20 99 0 191 48 238 124 17 28
39 48 60 56 48 17 100 66 128 121 20 39 24 63 24 130 0 81 -27 240 -54 316
l-14 40 43 -4 c81 -10 154 30 186 101 26 56 24 109 -6 168 -32 64 -32 70 8 50
24 -13 57 -17 139 -16 l106 1 -4 -56 c-8 -89 -11 -96 -53 -119 -82 -46 -160
-144 -161 -202 0 -8 -16 -39 -35 -67 -70 -105 -81 -230 -29 -343 31 -68 65
-105 127 -136 26 -14 50 -33 53 -42 29 -92 83 -151 158 -172 24 -6 86 -10 142
-9 54 2 124 -2 154 -8 69 -14 154 -1 228 34 66 31 157 119 200 193 59 103 51
101 134 32 100 -82 167 -122 200 -122 23 0 55 25 159 123 179 168 244 223 314
262 l59 34 48 -54 c69 -77 137 -108 248 -113 104 -5 152 12 225 79 68 63 96
117 103 197 4 50 11 75 30 99 36 48 51 100 52 177 0 104 -15 142 -87 214 -62
63 -63 64 -63 120 0 101 -59 196 -156 254 -33 20 -54 40 -54 51 0 26 -34 88
-62 113 -49 45 -89 58 -198 62 -103 4 -105 5 -150 42 -58 48 -106 63 -185 58
-53 -3 -73 -10 -117 -40 -29 -20 -70 -41 -90 -47 -47 -15 -103 -78 -120 -133
-8 -28 -30 -60 -64 -93 -56 -55 -94 -138 -94 -205 0 -81 63 -187 140 -235 21
-13 41 -33 45 -45 9 -29 -13 -162 -40 -243 -24 -70 -112 -227 -127 -227 -4 0
-8 10 -8 23 0 12 -10 42 -22 67 -11 25 -24 72 -28 105 -17 148 -117 247 -262
261 -35 4 -86 17 -115 31 -106 50 -231 40 -329 -28 -71 -48 -92 -36 -79 47 4
28 17 57 34 76 24 27 43 34 198 68 236 53 276 73 429 219 66 64 155 147 197
184 62 55 84 83 114 144 37 75 38 80 38 183 -1 89 -4 111 -23 146 l-23 41 27
53 c18 37 28 76 32 122 7 95 -25 160 -105 214 -56 39 -57 41 -69 106 -15 80
-31 112 -81 160 -47 45 -91 64 -169 73 -56 7 -62 10 -79 42 -63 117 -211 166
-375 124 -46 -11 -85 -19 -88 -17 -2 3 27 46 64 98 116 161 152 263 161 458 5
109 3 137 -17 215 -39 156 -78 225 -199 346 -118 118 -171 150 -294 176 -83
17 -174 11 -254 -17 -29 -10 -53 -15 -53 -12 0 4 7 45 15 92 8 47 15 108 15
137 0 44 -4 55 -26 72 -59 46 -122 12 -182 -96 l-28 -51 -43 84 c-49 97 -110
161 -197 210 -63 35 -111 43 -132 22z m189 -176 c34 -38 84 -134 110 -211 19
-55 26 -151 11 -151 -19 0 -133 128 -162 181 -30 58 -70 191 -70 236 l0 24 41
-23 c23 -13 54 -38 70 -56z m310 -224 c-51 -253 -44 -233 -77 -230 -16 2 -31
6 -33 8 -7 7 35 182 58 244 11 30 31 71 43 90 21 32 23 33 26 13 2 -13 -6 -69
-17 -125z m429 -144 c28 -8 50 -19 50 -23 0 -5 -30 -14 -67 -20 -114 -19 -202
-42 -214 -57 -18 -22 13 -60 62 -75 52 -17 80 -53 86 -112 10 -88 2 -86 -117
32 -60 61 -123 117 -140 126 -41 21 -38 50 10 96 29 28 53 40 92 47 64 13 170
6 238 -14z m-693 -57 l36 -34 -43 -7 c-99 -16 -227 -106 -204 -144 17 -27 52
-26 92 2 69 47 118 60 242 60 96 1 122 -3 160 -20 51 -24 171 -133 245 -223
41 -50 55 -61 80 -61 25 0 36 8 58 42 15 23 30 57 33 76 11 56 -3 140 -29 185
l-25 43 100 18 100 18 55 -53 c69 -69 107 -128 140 -220 23 -65 26 -89 27
-204 1 -146 -13 -212 -69 -329 -43 -90 -141 -222 -163 -219 -9 0 -37 9 -62 18
-58 22 -158 22 -204 0 -34 -16 -50 -32 -124 -124 -31 -38 -37 -41 -83 -41 -49
0 -97 -17 -132 -48 -16 -14 -25 -14 -100 2 -205 44 -374 124 -475 226 -115
115 -180 234 -208 378 -18 93 -17 139 1 226 45 213 223 402 423 450 82 20 88
20 129 -17z m-659 -1172 c45 -134 91 -315 82 -320 -19 -12 -81 89 -108 175
-28 88 -37 270 -12 243 4 -4 21 -48 38 -98z m1426 30 c18 -9 54 -38 81 -65 27
-28 55 -50 63 -50 7 0 39 12 70 28 49 23 69 27 148 27 80 0 95 -3 129 -25 23
-16 52 -50 75 -90 l36 -65 71 3 c74 4 99 -4 141 -42 38 -34 54 -75 61 -155 l6
-74 55 -19 c63 -21 94 -51 111 -109 16 -52 1 -116 -41 -177 -17 -23 -30 -46
-30 -51 0 -5 14 -35 31 -67 28 -53 30 -66 27 -129 -5 -103 -51 -192 -138 -264
-36 -29 -114 -102 -175 -161 -130 -127 -167 -152 -260 -179 -75 -21 -145 -35
-145 -28 0 3 71 61 158 130 214 171 288 251 354 381 68 135 84 227 52 306 -18
44 -40 61 -94 70 l-35 5 3 71 c2 38 -1 89 -7 112 -22 79 -93 136 -187 149 -41
5 -47 10 -69 52 -60 118 -178 169 -320 138 -58 -13 -61 -13 -92 11 -93 69
-232 23 -280 -93 -10 -25 -21 -45 -25 -45 -4 0 -33 7 -64 15 -63 16 -105 10
-160 -24 -51 -31 -69 -82 -68 -191 1 -101 8 -124 88 -304 40 -91 43 -116 50
-400 5 -198 5 -199 -14 -181 -11 10 -43 64 -70 119 -43 90 -59 137 -100 294
-6 24 -26 60 -44 80 -64 71 -109 153 -109 197 0 65 20 119 68 184 43 59 45 64
45 131 0 137 39 230 121 290 44 32 94 39 143 20 39 -14 53 -4 86 65 17 35 46
77 65 94 32 27 43 31 96 31 34 0 75 -7 93 -15z m-1620 -181 c52 -39 142 -145
172 -199 19 -36 14 -63 -13 -72 -14 -5 -270 242 -278 268 -17 52 52 54 119 3z
m1669 -189 c41 -40 58 -42 118 -15 49 22 129 26 161 9 33 -18 66 -60 84 -109
10 -25 21 -50 26 -56 4 -6 40 -14 79 -16 60 -5 75 -10 100 -34 76 -73 54 -220
-40 -257 -26 -11 -56 -14 -93 -10 -112 11 -226 -58 -377 -228 -47 -54 -88 -93
-89 -88 -5 14 27 144 50 204 39 100 90 191 138 248 51 60 57 72 40 82 -14 9
-61 -19 -102 -62 -35 -37 -98 -153 -98 -182 0 -35 -16 7 -27 70 -12 77 -60
187 -117 269 -39 57 -44 91 -22 144 31 75 109 89 169 31z m-1137 -31 c58 -28
166 -167 149 -194 -3 -4 -18 -11 -35 -15 -66 -14 -102 -74 -64 -106 13 -11 25
-8 74 19 31 18 62 32 67 32 11 0 30 -39 88 -175 l42 -100 -79 -49 c-74 -45
-79 -50 -76 -80 4 -46 30 -44 110 9 39 26 74 43 78 38 7 -8 25 -49 131 -306
27 -66 106 -233 175 -373 69 -140 128 -271 131 -292 5 -34 1 -42 -27 -65 -74
-62 -135 -17 -234 174 -129 248 -172 301 -280 345 -44 18 -60 34 -34 34 24 0
79 52 76 72 -6 41 -34 45 -91 15 l-52 -28 -29 38 c-39 50 -265 275 -340 339
l-59 51 89 55 c49 30 96 67 104 82 14 25 13 28 -4 41 -22 17 -32 12 -165 -68
l-84 -51 -42 47 c-73 79 -92 171 -54 251 28 61 194 220 262 251 61 29 124 32
173 9z m-523 -75 c23 -6 51 -17 61 -25 18 -13 18 -15 3 -32 -16 -17 -20 -17
-126 4 -60 11 -117 24 -128 28 -17 7 -17 8 1 22 24 17 128 19 189 3z m1336
-14 c69 -35 157 -175 197 -310 23 -78 23 -266 0 -395 -17 -97 -132 -452 -161
-496 -9 -14 -20 -22 -24 -19 -10 6 -19 137 -31 475 -9 264 -14 291 -74 422
-53 118 -56 127 -63 188 -7 69 -1 98 27 128 25 26 86 30 129 7z m1072 -426
c19 -36 5 -110 -36 -190 -79 -155 -125 -207 -340 -382 -88 -72 -189 -156 -223
-188 -75 -66 -148 -107 -165 -90 -23 23 43 156 142 286 63 84 164 188 244 252
69 56 88 93 46 93 -43 0 -136 -65 -234 -164 -114 -114 -199 -234 -274 -383
-48 -97 -53 -103 -81 -103 -17 0 -33 6 -36 13 -5 15 57 200 88 262 42 81 142
242 188 300 64 80 174 185 235 224 45 29 55 31 139 31 81 0 97 4 150 30 74 37
139 41 157 9z m728 -357 c12 -9 34 -33 47 -54 27 -42 37 -44 125 -28 86 17
137 4 187 -45 31 -31 42 -50 42 -72 0 -32 17 -51 68 -77 49 -25 113 -86 129
-123 7 -18 13 -63 13 -101 l0 -69 59 -51 c71 -62 91 -101 91 -180 0 -75 -12
-107 -55 -152 -31 -32 -33 -41 -37 -112 -3 -68 -7 -81 -34 -115 -17 -21 -51
-49 -75 -63 -87 -49 -238 -23 -292 51 -17 24 -18 30 -6 64 14 36 13 38 -17 64
-57 48 -72 112 -34 146 23 21 26 57 7 73 -7 6 -35 10 -63 10 -99 -2 -157 61
-158 171 -1 86 -15 95 -89 58 -78 -40 -165 -38 -252 5 -101 51 -145 110 -145
196 0 64 30 109 95 143 49 25 50 26 56 80 3 30 9 62 14 72 9 20 46 42 90 51
17 4 43 20 59 36 46 49 119 58 175 22z m-2973 -249 c67 -45 124 -113 124 -148
0 -17 -9 -27 -37 -38 l-37 -14 -28 38 c-38 53 -95 92 -179 124 -38 15 -69 31
-69 36 0 5 15 18 33 30 51 32 120 22 193 -28z m489 -68 c75 -20 158 -69 195
-115 40 -50 130 -235 183 -377 60 -157 97 -298 104 -399 7 -93 -5 -139 -45
-177 l-28 -27 -12 93 c-21 155 -144 488 -183 495 -30 5 -27 -22 12 -142 60
-180 99 -342 99 -405 0 -41 -7 -71 -26 -109 -33 -67 -72 -94 -141 -100 -47 -4
-64 0 -129 32 -65 32 -103 65 -285 242 -125 121 -219 204 -230 204 -53 0 2
-75 222 -304 74 -77 160 -159 192 -182 53 -39 56 -44 38 -53 -31 -17 -102 -12
-150 9 -94 43 -194 140 -364 354 -155 195 -221 319 -233 434 -13 120 53 254
147 302 40 21 84 26 93 12 3 -5 -15 -44 -40 -88 -78 -134 -101 -229 -73 -301
14 -38 48 -73 72 -73 16 0 18 5 13 33 -17 83 -18 164 -2 195 23 44 49 58 141
77 96 20 142 42 220 108 109 91 163 97 240 26 49 -45 78 -48 83 -9 2 18 -7 36
-30 59 -57 58 -74 65 -182 71 -97 6 -155 22 -163 46 -5 15 48 53 96 70 48 18
95 17 166 -1z m-275 -190 c0 -21 -73 -66 -128 -80 -26 -7 -48 -11 -50 -10 -24
22 140 126 171 108 4 -2 7 -11 7 -18z m2553 -221 c19 -7 14 -54 -16 -142 -22
-63 -22 -64 -3 -78 26 -19 31 -18 60 9 24 22 48 86 61 161 l7 39 24 -43 c13
-23 38 -60 55 -81 l31 -39 -35 -39 c-50 -56 -60 -77 -47 -101 17 -32 54 -25
93 19 19 22 41 50 48 63 12 22 14 19 36 -52 12 -41 23 -77 23 -81 0 -3 -21
-15 -46 -27 -75 -37 -183 -122 -315 -250 -156 -150 -158 -151 -212 -118 -64
38 -157 115 -157 129 0 7 31 54 69 105 135 178 191 296 213 452 l11 80 43 0
c23 0 49 -3 57 -6z m-818 -41 c25 -14 65 -23 107 -26 129 -9 178 -54 188 -174
5 -57 13 -91 33 -127 49 -89 32 -194 -48 -291 -19 -23 -49 -69 -69 -101 -67
-114 -143 -164 -262 -172 -54 -3 -86 0 -117 12 -33 12 -50 14 -77 6 -54 -15
-131 -12 -169 8 -44 22 -71 58 -86 118 -11 46 -15 50 -79 82 -68 35 -95 63
-114 121 -26 75 -9 151 48 217 25 28 40 55 40 72 1 53 36 109 99 155 61 45
115 63 152 52 14 -5 39 5 80 30 92 57 189 63 274 18z"/>
<path d="M4650 4696 c0 -41 15 -46 50 -18 24 20 16 33 -27 46 -21 7 -23 4 -23
-28z"/>
<path d="M4882 4650 c3 -70 17 -85 43 -46 15 22 15 27 1 53 -8 16 -22 35 -31
43 -15 12 -16 7 -13 -50z"/>
<path d="M4383 4574 c-12 -31 42 -95 67 -79 15 9 12 48 -6 73 -18 25 -52 29
-61 6z"/>
<path d="M4912 8868 c-17 -17 -15 -53 3 -68 8 -7 91 -32 183 -56 92 -23 187
-50 211 -58 110 -40 320 -213 454 -374 111 -135 307 -423 307 -452 0 -5 -23
-38 -51 -72 -114 -141 -179 -258 -179 -319 0 -68 31 -150 71 -190 64 -64 133
-68 277 -15 l42 15 -1 -27 c0 -15 -4 -49 -8 -76 -5 -28 -4 -64 1 -82 21 -76
209 -326 335 -445 114 -109 219 -162 613 -309 85 -32 272 -104 415 -160 143
-56 296 -113 340 -126 104 -32 240 -54 340 -55 156 -3 160 13 -63 -214 -108
-110 -316 -324 -462 -475 -479 -498 -843 -858 -885 -876 -30 -13 -89 -19 -240
-25 -207 -8 -236 -13 -331 -55 -73 -32 -132 -72 -219 -150 -104 -92 -172 -120
-351 -145 -43 -6 -85 -15 -91 -21 -18 -14 -16 -53 2 -68 32 -27 262 14 372 66
29 14 88 58 132 98 83 76 189 139 275 163 28 8 136 18 241 22 193 9 231 16
295 56 37 24 434 414 616 605 194 204 674 700 841 869 90 90 163 172 163 180
0 9 -7 26 -15 37 -13 20 -26 22 -212 27 -287 9 -320 17 -738 182 -143 57 -332
131 -420 165 -435 167 -486 196 -633 360 -52 58 -125 152 -164 209 l-69 104 7
103 c7 101 6 103 -19 128 -32 32 -52 32 -152 1 -102 -31 -145 -32 -172 -2 -25
27 -43 79 -43 122 0 39 61 135 174 275 42 52 76 103 76 113 0 28 -36 93 -128
227 -247 362 -438 557 -652 665 -62 32 -58 30 -278 90 -177 49 -192 51 -210
33z"/>
<path d="M3500 3516 c-75 -16 -123 -41 -169 -87 -57 -57 -75 -101 -79 -196 -3
-71 -1 -89 21 -135 39 -86 107 -131 297 -193 101 -33 150 -74 150 -125 0 -44
-16 -69 -55 -86 -80 -33 -198 -4 -280 68 l-48 42 -39 -45 c-21 -24 -51 -61
-66 -83 l-26 -39 43 -38 c96 -86 247 -129 387 -112 99 12 164 42 224 103 111
115 106 306 -12 405 -36 31 -137 79 -242 116 -40 14 -84 38 -104 56 -31 30
-34 37 -29 73 7 51 20 67 68 82 54 16 134 -4 201 -48 28 -19 54 -37 58 -39 9
-5 120 128 120 143 0 18 -83 84 -134 108 -47 21 -161 45 -211 43 -11 0 -45 -6
-75 -13z"/>
<path d="M9033 3502 c-129 -46 -204 -152 -203 -286 1 -90 41 -169 111 -219 21
-16 98 -50 170 -77 161 -60 191 -84 187 -149 -3 -39 -8 -49 -37 -68 -67 -45
-199 -20 -290 56 l-49 41 -34 -38 c-54 -60 -88 -108 -88 -124 0 -15 40 -49
102 -85 189 -110 430 -90 549 45 102 116 89 304 -26 399 -19 16 -81 48 -137
71 -218 89 -248 113 -234 186 8 43 52 76 103 76 46 0 122 -28 167 -61 22 -16
45 -29 50 -29 15 0 116 125 116 143 0 21 -67 72 -137 104 -78 36 -240 44 -320
15z"/>
<path d="M820 3488 c-1 -7 -1 -222 0 -478 0 -256 0 -475 0 -488 0 -22 1 -23
108 -20 l107 3 2 175 c1 96 2 181 3 188 0 9 40 12 165 12 l166 0 -3 93 -3 92
-162 3 -163 2 0 115 0 115 188 2 187 3 3 98 3 97 -301 0 c-233 0 -300 -3 -300
-12z"/>
<path d="M1575 3488 c-3 -7 -4 -231 -3 -498 l3 -485 108 -3 107 -3 0 166 0
165 59 0 59 0 43 -77 c23 -43 62 -114 86 -157 24 -44 49 -84 56 -88 17 -11
237 -10 237 1 0 5 -45 83 -100 174 -55 90 -100 170 -99 178 0 8 19 28 42 44
122 88 160 284 84 428 -35 67 -71 100 -147 136 -54 25 -61 26 -293 29 -189 3
-238 1 -242 -10z m419 -202 c52 -22 76 -64 76 -133 0 -104 -39 -133 -185 -133
l-95 0 0 140 0 140 85 0 c50 0 99 -6 119 -14z"/>
<path d="M2475 3488 c-3 -7 -4 -231 -3 -498 l3 -485 318 -3 317 -2 0 95 0 95
-128 0 c-71 0 -163 3 -205 6 l-77 7 0 98 0 99 170 0 c94 0 170 1 171 3 6 21 9
144 5 162 l-6 25 -170 0 -170 0 0 105 0 105 198 2 197 3 3 98 3 97 -311 0
c-239 0 -312 -3 -315 -12z"/>
<path d="M4090 3000 l0 -500 110 0 110 0 0 195 0 195 185 0 185 0 0 -195 0
-195 110 0 110 0 -2 498 -3 497 -107 3 -108 3 0 -201 0 -200 -185 0 -185 0 -2
198 -3 197 -107 3 -108 3 0 -501z"/>
<path d="M5727 3493 c-6 -10 -353 -942 -362 -971 l-7 -23 118 3 118 3 31 90
31 90 176 3 177 2 14 -27 c8 -16 24 -58 36 -95 l23 -68 115 0 116 0 -6 29 c-4
21 -299 842 -342 954 -6 15 -22 17 -120 17 -63 0 -116 -3 -118 -7z m166 -432
c26 -82 50 -156 53 -165 5 -14 -8 -16 -105 -16 -61 0 -111 4 -111 8 0 21 102
322 108 322 5 0 29 -67 55 -149z"/>
<path d="M6430 2999 l0 -501 233 4 c252 5 280 10 398 75 62 33 148 124 178
189 74 156 61 388 -29 519 -71 104 -191 181 -315 204 -32 6 -150 11 -262 11
l-203 0 0 -501z m478 271 c102 -44 152 -134 152 -274 0 -100 -27 -165 -90
-219 -56 -48 -115 -66 -225 -69 l-90 -3 -3 299 -2 299 103 -5 c76 -4 117 -12
155 -28z"/>
<path d="M7446 3484 c-3 -9 -6 -234 -6 -501 l0 -485 233 4 c201 4 239 8 287
25 142 52 230 125 285 236 121 248 39 549 -183 670 -97 53 -183 67 -408 67
-175 0 -203 -2 -208 -16z m469 -208 c101 -43 159 -142 159 -271 0 -123 -43
-204 -141 -261 -46 -28 -198 -53 -246 -41 l-27 7 0 296 0 297 108 -5 c69 -3
121 -11 147 -22z"/>
<path d="M8457 3493 c-4 -3 -7 -228 -7 -500 l0 -493 110 0 110 0 0 500 0 500
-103 0 c-57 0 -107 -3 -110 -7z"/>
<path d="M4658 2110 c-17 -10 -18 -37 -18 -325 0 -245 3 -315 13 -316 47 -6
86 -6 110 -2 l27 5 0 104 0 104 48 0 47 0 60 -105 59 -105 78 0 c43 0 78 2 78
4 0 2 -31 55 -70 116 l-70 113 45 39 c52 46 69 94 63 180 -6 76 -44 132 -113
167 -45 22 -64 25 -195 28 -93 2 -151 0 -162 -7z m308 -153 c29 -34 31 -86 5
-118 -17 -21 -30 -24 -100 -27 l-81 -4 0 84 c0 47 3 88 8 92 4 4 38 6 76 4 60
-3 71 -7 92 -31z"/>
<path d="M6353 2114 c-10 -4 -13 -79 -13 -325 l0 -319 209 0 c235 0 221 -6
213 82 l-4 47 -136 3 -137 3 -3 63 -3 62 121 0 120 0 0 60 0 59 -117 3 -118 3
-3 63 -3 62 141 0 140 0 0 65 c0 49 -3 65 -14 65 -8 0 -97 2 -198 5 -100 2
-189 2 -195 -1z"/>
<path d="M2680 1790 l0 -320 70 0 70 0 0 198 0 197 39 -71 c21 -38 60 -104 87
-145 42 -62 54 -74 80 -77 29 -3 34 3 87 85 30 48 67 111 81 140 15 29 31 55
36 58 6 4 10 -66 10 -188 l0 -195 44 -4 c25 -1 55 -1 68 2 l23 6 0 314 0 315
-76 3 -76 3 -94 -165 c-52 -91 -97 -164 -102 -163 -4 1 -49 74 -101 162 l-93
160 -76 3 -77 3 0 -321z"/>
<path d="M3921 2058 c-39 -92 -218 -542 -225 -565 -7 -22 -5 -23 67 -23 l74 0
22 60 22 60 127 0 127 0 24 -60 24 -60 74 0 c40 0 73 4 73 9 0 5 -24 69 -54
142 -30 74 -82 204 -115 289 -34 85 -66 165 -71 178 -9 20 -16 22 -78 22 l-69
0 -22 -52z m127 -222 c17 -52 32 -101 32 -109 0 -13 -13 -15 -72 -14 -40 1
-73 6 -72 10 1 18 69 207 74 207 3 0 20 -42 38 -94z"/>
<path d="M5480 1792 l0 -320 23 -6 c28 -7 76 -7 105 0 21 6 22 11 22 103 0 89
2 99 23 119 13 12 26 22 29 22 3 0 45 -51 94 -112 48 -62 94 -118 101 -125 10
-8 40 -10 91 -6 43 3 78 7 80 8 2 2 -58 78 -132 169 -75 91 -136 169 -136 172
0 3 51 67 113 141 61 73 114 138 115 143 2 6 -31 10 -80 10 l-83 0 -107 -131
-107 -131 -3 129 -3 128 -72 3 -73 3 0 -319z"/>
<path d="M7062 2048 l3 -63 93 -3 92 -3 0 -253 c0 -281 -4 -266 68 -266 20 0
47 3 60 6 l22 6 0 254 0 253 88 3 87 3 3 63 3 62 -261 0 -261 0 3 -62z"/>
</g>
</svg>
